<?xml version="1.0" encoding="UTF-8"?>
<svg version="1.1" xmlns="http://www.w3.org/2000/svg" width="528" height="109">
<path d="M0 0 C174.24 0 348.48 0 528 0 C528 35.97 528 71.94 528 109 C353.76 109 179.52 109 0 109 C0 73.03 0 37.06 0 0 Z " fill="#FBFCFE" transform="translate(0,0)"/>
<path d="M0 0 C9 0 9 0 13 2 C14.8125 4.5 14.8125 4.5 16 7 C15.67 7.66 15.34 8.32 15 9 C15.66 9 16.32 9 17 9 C17.268125 8.4225 17.53625 7.845 17.8125 7.25 C19.08791373 4.83342662 20.09254107 2.97323338 22 1 C24.91796875 0.609375 24.91796875 0.609375 28.1875 0.75 C29.27417969 0.78609375 30.36085937 0.8221875 31.48046875 0.859375 C32.72763672 0.92898437 32.72763672 0.92898437 34 1 C34.05830787 4.39576062 34.09369946 7.7913915 34.125 11.1875 C34.14175781 12.14720703 34.15851563 13.10691406 34.17578125 14.09570312 C34.18544922 15.49272461 34.18544922 15.49272461 34.1953125 16.91796875 C34.21102295 18.19837036 34.21102295 18.19837036 34.22705078 19.50463867 C33.97204194 22.30726815 33.15541422 24.44729419 32 27 C28.7 27 25.4 27 22 27 C21.505 22.05 21.505 22.05 21 17 C20.01 19.475 20.01 19.475 19 22 C16.6875 21.75 16.6875 21.75 14 21 C13.01 19.68 12.02 18.36 11 17 C10.67 20.3 10.34 23.6 10 27 C6.7 27 3.4 27 0 27 C0 18.09 0 9.18 0 0 Z " fill="#F8654C" transform="translate(199,54)"/>
<path d="M0 0 C4.2384375 -0.0928125 4.2384375 -0.0928125 8.5625 -0.1875 C9.43849854 -0.21481201 10.31449707 -0.24212402 11.21704102 -0.27026367 C16.59041996 -0.3266978 20.25439274 0.43349811 25 3 C27.89225225 6.18889351 29.24777252 8.7446783 29.5 13 C29.26579156 17.2238281 27.77266445 19.77771428 25 23 C20.29423321 26.89696312 15.47821601 26.34587456 9.6875 26.1875 C4.8921875 26.0946875 4.8921875 26.0946875 0 26 C0 17.42 0 8.84 0 0 Z " fill="#FD6243" transform="translate(281,55)"/>
<path d="M0 0 C3.361875 -0.0825 6.72375 -0.165 10.1875 -0.25 C11.23832764 -0.28641602 12.28915527 -0.32283203 13.37182617 -0.36035156 C17.7177638 -0.41202442 20.31993003 -0.39536987 24.14453125 1.828125 C26 4 26 4 26.5 7 C25.96640635 10.20156191 25.17622614 11.64242168 23 14 C23.66 14.86625 24.32 15.7325 25 16.625 C27.12695385 20.21423463 27.38790972 21.92694798 27 26 C23.7 26 20.4 26 17 26 C16.66226563 25.28972656 16.32453125 24.57945313 15.9765625 23.84765625 C15.30753906 22.46900391 15.30753906 22.46900391 14.625 21.0625 C14.18414062 20.14597656 13.74328125 19.22945312 13.2890625 18.28515625 C12.20800838 15.87096198 12.20800838 15.87096198 10 15 C10.99 16.485 10.99 16.485 12 18 C12.25760279 20.69452521 12.08900053 23.28548375 12 26 C8.04 26 4.08 26 0 26 C0 17.42 0 8.84 0 0 Z " fill="#FB6346" transform="translate(170,55)"/>
<path d="M0 0 C3.63 0 7.26 0 11 0 C11 3 11 6 11 9 C11.37769531 8.3503125 11.75539063 7.700625 12.14453125 7.03125 C13.93366156 4.31612954 15.54773327 2.14677957 18 0 C21.78428446 -0.77613341 25.19390478 -0.55749315 29 0 C28.40392037 3.47584097 27.09919487 5.29498076 24.8125 7.9375 C22.34594371 10.91501611 22.34594371 10.91501611 22.3125 14.625 C23.68355824 16.55463752 25.09461804 18.32558836 26.625 20.125 C29 23 29 23 29 26 C24.84571919 26.61393313 21.12727429 26.87376915 17 26 C13.89168104 23.06178805 11.92611712 19.79797742 10 16 C10.33 16.99 10.66 17.98 11 19 C11.03954234 21.33299825 11.04401732 23.66708189 11 26 C7.37 26 3.74 26 0 26 C0 17.42 0 8.84 0 0 Z " fill="#FC585B" transform="translate(272,14)"/>
<path d="M0 0 C2.97 0 5.94 0 9 0 C9 2.97 9 5.94 9 9 C11.97 9 14.94 9 18 9 C18 6.03 18 3.06 18 0 C21.3 0 24.6 0 28 0 C28 8.91 28 17.82 28 27 C25.03 27 22.06 27 19 27 C18 26 18 26 17.90234375 23.93359375 C17.93489583 21.62239583 17.96744792 19.31119792 18 17 C15.03 17 12.06 17 9 17 C9 19.97 9 22.94 9 26 C6.03 26 3.06 26 0 26 C0 17.42 0 8.84 0 0 Z " fill="#F86749" transform="translate(304,14)"/>
<path d="M0 0 C3.63 0 7.26 0 11 0 C11.29769287 0.74685059 11.59538574 1.49370117 11.90209961 2.26318359 C13.24633754 5.63414698 14.59190179 9.00457938 15.9375 12.375 C16.40607422 13.550625 16.87464844 14.72625 17.35742188 15.9375 C18.0293457 17.61972656 18.0293457 17.61972656 18.71484375 19.3359375 C19.33540649 20.89127197 19.33540649 20.89127197 19.96850586 22.47802734 C20.93799038 24.93875813 20.93799038 24.93875813 22 27 C18.7 27 15.4 27 12 27 C11.67 25.68 11.34 24.36 11 23 C7.37 23 3.74 23 0 23 C-0.33 24.32 -0.66 25.64 -1 27 C-4.3 27 -7.6 27 -11 27 C-8.97144779 20.60718089 -6.58951727 14.53890322 -3.8125 8.4375 C-3.44447266 7.61958984 -3.07644531 6.80167969 -2.69726562 5.95898438 C-1.80204987 3.97090782 -0.9015835 1.98519692 0 0 Z " fill="#F9674E" transform="translate(248,14)"/>
<path d="M0 0 C1.37478516 0.01740234 1.37478516 0.01740234 2.77734375 0.03515625 C3.69644531 0.04417969 4.61554688 0.05320312 5.5625 0.0625 C6.27277344 0.07410156 6.98304688 0.08570313 7.71484375 0.09765625 C9.18125863 3.28149801 10.63648129 6.47033771 12.08984375 9.66015625 C12.50234375 10.55541016 12.91484375 11.45066406 13.33984375 12.37304688 C15.54626876 17.23074064 17.42188649 21.91872306 18.71484375 27.09765625 C15.41484375 27.09765625 12.11484375 27.09765625 8.71484375 27.09765625 C8.21984375 24.62265625 8.21984375 24.62265625 7.71484375 22.09765625 C5.07484375 22.09765625 2.43484375 22.09765625 -0.28515625 22.09765625 C-0.40890625 22.73703125 -0.53265625 23.37640625 -0.66015625 24.03515625 C-0.86640625 24.71578125 -1.07265625 25.39640625 -1.28515625 26.09765625 C-3.80991087 27.36003356 -5.59716091 27.19622029 -8.41015625 27.16015625 C-9.32023438 27.15113281 -10.2303125 27.14210938 -11.16796875 27.1328125 C-12.21597656 27.11541016 -12.21597656 27.11541016 -13.28515625 27.09765625 C-11.38820545 20.96046247 -9.09881276 15.03571349 -6.66015625 9.09765625 C-6.19017212 7.94825562 -6.19017212 7.94825562 -5.71069336 6.77563477 C-2.9566184 0.12635121 -2.9566184 0.12635121 0 0 Z " fill="#FA654E" transform="translate(190.28515625,13.90234375)"/>
<path d="M0 0 C1.37478516 0.01740234 1.37478516 0.01740234 2.77734375 0.03515625 C3.69644531 0.04417969 4.61554688 0.05320313 5.5625 0.0625 C6.27277344 0.07410156 6.98304688 0.08570313 7.71484375 0.09765625 C11.78804091 8.64997056 15.42866963 17.21335365 18.71484375 26.09765625 C15.41484375 26.09765625 12.11484375 26.09765625 8.71484375 26.09765625 C8.38484375 24.77765625 8.05484375 23.45765625 7.71484375 22.09765625 C2.76484375 22.59265625 2.76484375 22.59265625 -2.28515625 23.09765625 C-2.61515625 24.08765625 -2.94515625 25.07765625 -3.28515625 26.09765625 C-6.58515625 26.09765625 -9.88515625 26.09765625 -13.28515625 26.09765625 C-11.45786802 20.07835384 -9.17781737 14.35450722 -6.66015625 8.59765625 C-6.3468335 7.87900391 -6.03351074 7.16035156 -5.71069336 6.41992188 C-2.92849425 0.12514933 -2.92849425 0.12514933 0 0 Z " fill="#FA6446" transform="translate(322.28515625,54.90234375)"/>
<path d="M0 0 C3.63 0 7.26 0 11 0 C12.67239921 3.95593578 14.33694382 7.9151284 16 11.875 C16.47695312 13.00292969 16.95390625 14.13085938 17.4453125 15.29296875 C18.12207031 16.90751953 18.12207031 16.90751953 18.8125 18.5546875 C19.23144531 19.54968262 19.65039062 20.54467773 20.08203125 21.56982422 C21 24 21 24 21 26 C17.7 26 14.4 26 11 26 C11 24.68 11 23.36 11 22 C7.37 22 3.74 22 0 22 C-0.33 23.32 -0.66 24.64 -1 26 C-4.3 26 -7.6 26 -11 26 C-9.73240103 22.7903551 -8.46104621 19.5822845 -7.1875 16.375 C-6.83107422 15.47136719 -6.47464844 14.56773438 -6.10742188 13.63671875 C-4.25370842 8.9769253 -2.33710254 4.43828305 0 0 Z " fill="#F3674E" transform="translate(146,55)"/>
<path d="M0 0 C1.37478516 0.01740234 1.37478516 0.01740234 2.77734375 0.03515625 C3.69644531 0.04417969 4.61554688 0.05320313 5.5625 0.0625 C6.27277344 0.07410156 6.98304688 0.08570313 7.71484375 0.09765625 C11.78804091 8.64997056 15.42866963 17.21335365 18.71484375 26.09765625 C15.41484375 26.09765625 12.11484375 26.09765625 8.71484375 26.09765625 C8.38484375 24.77765625 8.05484375 23.45765625 7.71484375 22.09765625 C2.76484375 22.59265625 2.76484375 22.59265625 -2.28515625 23.09765625 C-2.61515625 24.08765625 -2.94515625 25.07765625 -3.28515625 26.09765625 C-6.58515625 26.09765625 -9.88515625 26.09765625 -13.28515625 26.09765625 C-11.45786802 20.07835384 -9.17781737 14.35450722 -6.66015625 8.59765625 C-6.3468335 7.87900391 -6.03351074 7.16035156 -5.71069336 6.41992188 C-2.92849425 0.12514933 -2.92849425 0.12514933 0 0 Z " fill="#FA6446" transform="translate(403.28515625,54.90234375)"/>
<path d="M0 0 C3.3 0 6.6 0 10 0 C21 21.31958763 21 21.31958763 21 26 C17.7 26 14.4 26 11 26 C10.67 25.01 10.34 24.02 10 23 C6.7 23 3.4 23 0 23 C-0.33 23.99 -0.66 24.98 -1 26 C-4.3 26 -7.6 26 -11 26 C-7.71382588 17.1156974 -4.07319716 8.55231431 0 0 Z " fill="#F3684D" transform="translate(244,55)"/>
<path d="M0 0 C3.3 0 6.6 0 10 0 C14 8.625 14 8.625 14 12 C14.66 12 15.32 12 16 12 C16.103125 11.13375 16.20625 10.2675 16.3125 9.375 C17.03398414 5.83316877 18.27123261 3.15687958 20 0 C22.64 0 25.28 0 28 0 C25.24892128 8.90054879 21.59701637 17.41643491 18 26 C15.36 26 12.72 26 10 26 C8.32760079 22.04406422 6.66305618 18.0848716 5 14.125 C4.52304688 12.99707031 4.04609375 11.86914062 3.5546875 10.70703125 C2.87792969 9.09248047 2.87792969 9.09248047 2.1875 7.4453125 C1.76855469 6.45031738 1.34960938 5.45532227 0.91796875 4.43017578 C0 2 0 2 0 0 Z " fill="#FA6444" transform="translate(106,55)"/>
<path d="M0 0 C1.796875 1.328125 1.796875 1.328125 3 3 C3.1875 6.1875 3.1875 6.1875 3 9 C-1.75 7.125 -1.75 7.125 -4 6 C-2.4882584 10.23287649 0.3322614 11.63125215 4 14 C6 17 6 17 5.8125 19.4375 C4.9255172 22.2349073 4.03544239 23.88917085 2 26 C-0.84928316 26.93349106 -3.51242634 27.16192146 -6.5 27.1875 C-7.2528125 27.20167969 -8.005625 27.21585938 -8.78125 27.23046875 C-11.24864173 26.97417278 -12.86356256 26.22845153 -15 25 C-15 22.69 -15 20.38 -15 18 C-10.545 18.99 -10.545 18.99 -6 20 C-7.14797865 16.55606406 -7.57471581 16.48445196 -10.5625 14.8125 C-12.75175205 13.32597083 -13.81779112 12.59395364 -14.6015625 10.0390625 C-14.73509225 6.77365319 -14.19317868 4.35123397 -12.625 1.5 C-8.64417984 -0.77475438 -4.48005816 -0.83019442 0 0 Z " fill="#F9634E" transform="translate(172,14)"/>
<path d="M0 0 C3.63 0 7.26 0 11 0 C11 6.6 11 13.2 11 20 C14.3 20 17.6 20 21 20 C21 22.31 21 24.62 21 27 C14.07 27 7.14 27 0 27 C0 18.09 0 9.18 0 0 Z " fill="#FD5C5D" transform="translate(351,14)"/>
<path d="M0 0 C8.25 0 16.5 0 25 0 C25 1.98 25 3.96 25 6 C22.36 6 19.72 6 17 6 C17 12.6 17 19.2 17 26 C14.03 26 11.06 26 8 26 C8 19.4 8 12.8 8 6 C5.36 6 2.72 6 0 6 C0 4.02 0 2.04 0 0 Z " fill="#FD6142" transform="translate(342,55)"/>
<path d="M0 0 C3.96 0 7.92 0 12 0 C12.02682299 4.31254083 12.04675244 8.62491707 12.0625 12.9375 C12.07087891 14.16919922 12.07925781 15.40089844 12.08789062 16.66992188 C12.09111328 17.83974609 12.09433594 19.00957031 12.09765625 20.21484375 C12.10289307 21.29886475 12.10812988 22.38288574 12.11352539 23.49975586 C12 26 12 26 11 27 C7.37 27 3.74 27 0 27 C0 18.09 0 9.18 0 0 Z " fill="#FC6441" transform="translate(212,14)"/>
<path d="M0 0 C2.97 0 5.94 0 9 0 C9 6.27 9 12.54 9 19 C12.63 19 16.26 19 20 19 C19.67 21.31 19.34 23.62 19 26 C12.73 26 6.46 26 0 26 C0 17.42 0 8.84 0 0 Z " fill="#FE6241" transform="translate(370,55)"/>
<path d="M0 0 C3.63 0 7.26 0 11 0 C11 8.58 11 17.16 11 26 C9 27 9 27 0 27 C0 18.09 0 9.18 0 0 Z " fill="#FE5563" transform="translate(337,14)"/>
<path d="M0 0 C4.95 0 9.9 0 15 0 C14.01 0.66 13.02 1.32 12 2 C12.66 2.66 13.32 3.32 14 4 C12.35 4 10.7 4 9 4 C9.26656572 6.93443402 9.26656572 6.93443402 10 10 C10.99 10.66 11.98 11.32 13 12 C12.34 12 11.68 12 11 12 C11 12.66 11 13.32 11 14 C10.34 14 9.68 14 9 14 C9 17.96 9 21.92 9 26 C6.03 26 3.06 26 0 26 C0 17.42 0 8.84 0 0 Z " fill="#FD6341" transform="translate(170,55)"/>
<path d="M0 0 C0.99 0 1.98 0 3 0 C3 8.58 3 17.16 3 26 C2.01 26.33 1.02 26.66 0 27 C-0.309375 26.01 -0.309375 26.01 -0.625 25 C-1.92511221 22.16339153 -3.27782868 20.377412 -5.25 18 C-8.04219569 14.35444377 -8.04219569 14.35444377 -7.6875 11.375 C-5.60290056 8.4411193 -3.32795089 5.74578823 -1 3 C-0.67 2.01 -0.34 1.02 0 0 Z " fill="#B1ECF1" transform="translate(301,14)"/>
<path d="M0 0 C5 0 5 0 6.8125 1.0625 C8.69643714 4.13629218 8.43180709 6.48385658 8 10 C6.25 12.5 6.25 12.5 4 14 C2.68 13.67 1.36 13.34 0 13 C0 8.71 0 4.42 0 0 Z " fill="#F37CF8" transform="translate(290,61)"/>
<path d="M0 0 C0.99 0 1.98 0 3 0 C3.02886537 4.31248609 3.04675255 8.62494762 3.0625 12.9375 C3.07087891 14.16919922 3.07925781 15.40089844 3.08789062 16.66992188 C3.09111328 17.83974609 3.09433594 19.00957031 3.09765625 20.21484375 C3.10289307 21.29886475 3.10812988 22.38288574 3.11352539 23.49975586 C3 26 3 26 2 27 C0.14712498 27.07226502 -1.70833878 27.0838122 -3.5625 27.0625 C-4.57441406 27.05347656 -5.58632812 27.04445313 -6.62890625 27.03515625 C-7.41136719 27.02355469 -8.19382813 27.01195313 -9 27 C-9 26.67 -9 26.34 -9 26 C-6.03 26 -3.06 26 0 26 C0 17.42 0 8.84 0 0 Z " fill="#FE4EDD" transform="translate(221,14)"/>
<path d="M0 0 C0.99 0 1.98 0 3 0 C3 8.91 3 17.82 3 27 C2.01 27 1.02 27 0 27 C0 18.09 0 9.18 0 0 Z " fill="#3EE8E3" transform="translate(278,54)"/>
<path d="M0 0 C0.99 0 1.98 0 3 0 C3 8.58 3 17.16 3 26 C2.01 26 1.02 26 0 26 C0 17.42 0 8.84 0 0 Z " fill="#3AE2E3" transform="translate(367,55)"/>
<path d="M0 0 C0.99 0 1.98 0 3 0 C3 8.58 3 17.16 3 26 C2.01 26 1.02 26 0 26 C0 17.42 0 8.84 0 0 Z " fill="#3AEAF1" transform="translate(167,55)"/>
<path d="M0 0 C0.99 0 1.98 0 3 0 C3.05830787 3.39576062 3.09369946 6.7913915 3.125 10.1875 C3.15013672 11.62706055 3.15013672 11.62706055 3.17578125 13.09570312 C3.18222656 14.02705078 3.18867188 14.95839844 3.1953125 15.91796875 C3.20578613 16.77156982 3.21625977 17.6251709 3.22705078 18.50463867 C2.97204194 21.30726815 2.15541422 23.44729419 1 26 C0.67 26 0.34 26 0 26 C0 17.42 0 8.84 0 0 Z " fill="#FB1FD8" transform="translate(230,55)"/>
<path d="M0 0 C0.99 0 1.98 0 3 0 C1.22018665 5.80884137 -1.21172067 11.30937454 -3.625 16.875 C-4.25535156 18.33679688 -4.25535156 18.33679688 -4.8984375 19.828125 C-5.93010026 22.21970686 -6.96401284 24.61028899 -8 27 C-8.66 27 -9.32 27 -10 27 C-8.79905819 19.39403519 -5.89853611 13.11628951 -2.55859375 6.2578125 C-0.9628825 3.09558253 -0.9628825 3.09558253 0 0 Z " fill="#2EF5F5" transform="translate(317,54)"/>
<path d="M0 0 C0.99 0.33 1.98 0.66 3 1 C1.41367145 4.98651261 -0.19698024 8.96273721 -1.8125 12.9375 C-2.26431641 14.07380859 -2.71613281 15.21011719 -3.18164062 16.38085938 C-3.62314453 17.46044922 -4.06464844 18.54003906 -4.51953125 19.65234375 C-4.92276611 20.65257568 -5.32600098 21.65280762 -5.74145508 22.68334961 C-7 25 -7 25 -10 26 C-7.70175036 16.89455379 -3.8597477 8.5231689 0 0 Z " fill="#20F3F5" transform="translate(241,55)"/>
<path d="M0 0 C0.99 0 1.98 0 3 0 C1.11082583 6.1120341 -1.13040073 12.06079219 -3.5 18 C-3.79656494 18.76626709 -4.09312988 19.53253418 -4.39868164 20.32202148 C-5.1805361 22.25146094 -6.08234711 24.13132502 -7 26 C-7.99 26.33 -8.98 26.66 -10 27 C-7.97607539 20.72555221 -5.73023007 14.57015561 -3.3125 8.4375 C-2.83200195 7.21063477 -2.83200195 7.21063477 -2.34179688 5.95898438 C-1.56321746 3.97186378 -0.78190155 1.98581573 0 0 Z " fill="#FE1BED" transform="translate(134,54)"/>
<path d="M0 0 C3.42457856 0.95127182 4.93431491 1.92543855 7.3125 4.625 C9.33924665 8.6784933 9.87574703 11.55934335 9 16 C7.14884184 19.70231632 5.96464284 21.51767858 2.25 23.375 C1.5075 23.58125 0.765 23.7875 0 24 C0.33 23.34 0.66 22.68 1 22 C1.66 22 2.32 22 3 22 C5.03760201 17.03334509 5.94561139 12.30644061 5 7 C3.58187061 4.30209531 1.99475069 2.34383206 0 0 Z " fill="#FE30FD" transform="translate(301,56)"/>
<path d="M0 0 C0.99 0 1.98 0 3 0 C4.67223282 4.12276549 6.33684063 8.24856675 8 12.375 C8.71542969 14.1384375 8.71542969 14.1384375 9.4453125 15.9375 C9.89648438 17.05898437 10.34765625 18.18046875 10.8125 19.3359375 C11.23144531 20.37282715 11.65039062 21.4097168 12.08203125 22.47802734 C13 25 13 25 13 27 C10 26 10 26 8.74145508 23.71508789 C8.33822021 22.72758545 7.93498535 21.74008301 7.51953125 20.72265625 C7.07802734 19.65208984 6.63652344 18.58152344 6.18164062 17.47851562 C5.72982422 16.35123047 5.27800781 15.22394531 4.8125 14.0625 C4.34908203 12.93908203 3.88566406 11.81566406 3.40820312 10.65820312 C0 2.31086616 0 2.31086616 0 0 Z " fill="#1DF1EF" transform="translate(103,54)"/>
<path d="M0 0 C0.99 0 1.98 0 3 0 C4.67557981 3.76693513 6.33891867 7.53915174 8 11.3125 C8.47695313 12.38435547 8.95390625 13.45621094 9.4453125 14.56054688 C10.12207031 16.10258789 10.12207031 16.10258789 10.8125 17.67578125 C11.23144531 18.62364502 11.65039062 19.57150879 12.08203125 20.5480957 C13 23 13 23 13 26 C12.34 26 11.68 26 11 26 C9.16370918 21.8554703 7.33146258 17.70916529 5.5 13.5625 C4.97535156 12.37849609 4.45070313 11.19449219 3.91015625 9.97460938 C3.41386719 8.84990234 2.91757812 7.72519531 2.40625 6.56640625 C1.94541016 5.52427979 1.48457031 4.48215332 1.00976562 3.40844727 C0 1 0 1 0 0 Z " fill="#FE1BF4" transform="translate(254,55)"/>
<path d="M0 0 C0.99 0 1.98 0 3 0 C1.22018665 5.80884137 -1.21172067 11.30937454 -3.625 16.875 C-4.25535156 18.33679688 -4.25535156 18.33679688 -4.8984375 19.828125 C-5.93010026 22.21970686 -6.96401284 24.61028899 -8 27 C-8.33 27 -8.66 27 -9 27 C-8.51414599 20.33685923 -6.6403029 15.07780549 -3.9375 9 C-3.56044922 8.12988281 -3.18339844 7.25976562 -2.79492188 6.36328125 C-1.87240722 4.23799433 -0.94069645 2.1172862 0 0 Z " fill="#21F4F5" transform="translate(398,54)"/>
<path d="M0 0 C0.99 0.33 1.98 0.66 3 1 C1.41367145 4.98651261 -0.19698024 8.96273721 -1.8125 12.9375 C-2.26431641 14.07380859 -2.71613281 15.21011719 -3.18164062 16.38085938 C-3.62314453 17.46044922 -4.06464844 18.54003906 -4.51953125 19.65234375 C-4.92276611 20.65257568 -5.32600098 21.65280762 -5.74145508 22.68334961 C-7 25 -7 25 -10 26 C-7.24892128 17.09945121 -3.59701637 8.58356509 0 0 Z " fill="#21F7F6" transform="translate(143,55)"/>
<path d="M0 0 C0.99 0 1.98 0 3 0 C4.67239921 3.95593578 6.33694382 7.9151284 8 11.875 C8.71542969 13.56689453 8.71542969 13.56689453 9.4453125 15.29296875 C10.12207031 16.90751953 10.12207031 16.90751953 10.8125 18.5546875 C11.23144531 19.54968262 11.65039062 20.54467773 12.08203125 21.56982422 C13 24 13 24 13 26 C10 25 10 25 8.74145508 22.69921875 C8.13660278 21.20841797 8.13660278 21.20841797 7.51953125 19.6875 C7.07802734 18.61242187 6.63652344 17.53734375 6.18164062 16.4296875 C5.72982422 15.29789063 5.27800781 14.16609375 4.8125 13 C4.34908203 11.86820313 3.88566406 10.73640625 3.40820312 9.5703125 C0 1.19787831 0 1.19787831 0 0 Z " fill="#FF1AF6" transform="translate(411,55)"/>
<path d="M0 0 C0.99 0 1.98 0 3 0 C4.67239921 3.95593578 6.33694382 7.9151284 8 11.875 C8.71542969 13.56689453 8.71542969 13.56689453 9.4453125 15.29296875 C10.12207031 16.90751953 10.12207031 16.90751953 10.8125 18.5546875 C11.23144531 19.54968262 11.65039062 20.54467773 12.08203125 21.56982422 C13 24 13 24 13 26 C10 25 10 25 8.74145508 22.69921875 C8.13660278 21.20841797 8.13660278 21.20841797 7.51953125 19.6875 C7.07802734 18.61242187 6.63652344 17.53734375 6.18164062 16.4296875 C5.72982422 15.29789063 5.27800781 14.16609375 4.8125 13 C4.34908203 11.86820313 3.88566406 10.73640625 3.40820312 9.5703125 C0 1.19787831 0 1.19787831 0 0 Z " fill="#FF1AF6" transform="translate(330,55)"/>
<path d="M0 0 C0.99 0 1.98 0 3 0 C3 6.6 3 13.2 3 20 C2.01 20 1.02 20 0 20 C0 13.4 0 6.8 0 0 Z " fill="#3DE4DE" transform="translate(347,61)"/>
<path d="M0 0 C2.91517292 1.07401108 4.77810176 1.77810176 7 4 C7.38080215 7.50337981 7.40245078 9.36278626 5.5 12.375 C5.005 12.91125 4.51 13.4475 4 14 C4.66 14.86625 5.32 15.7325 6 16.625 C8.12695385 20.21423463 8.38790972 21.92694798 8 26 C6.21178226 23.31767339 4.79857396 20.69711039 3.375 17.8125 C2.92898437 16.91144531 2.48296875 16.01039062 2.0234375 15.08203125 C1.68570313 14.39496094 1.34796875 13.70789063 1 13 C1.66 12.34 2.32 11.68 3 11 C3.62587425 5.62881301 3.62587425 5.62881301 1.5 1 C1.005 0.67 0.51 0.34 0 0 Z " fill="#FE1CEF" transform="translate(189,55)"/>
<path d="M0 0 C0.66 0.33 1.32 0.66 2 1 C-1.63 9.58 -5.26 18.16 -9 27 C-9.66 27 -10.32 27 -11 27 C-10.38631398 23.40624179 -9.41145342 20.29780516 -7.96875 16.953125 C-7.57042969 16.02628906 -7.17210937 15.09945313 -6.76171875 14.14453125 C-6.34535156 13.18933594 -5.92898437 12.23414063 -5.5 11.25 C-5.08363281 10.27933594 -4.66726562 9.30867188 -4.23828125 8.30859375 C-1.14043257 1.14043257 -1.14043257 1.14043257 0 0 Z " fill="#29F2F5" transform="translate(186,14)"/>
<path d="M0 0 C3 1 3 1 3.9831543 2.57885742 C4.26070557 3.24763916 4.53825684 3.9164209 4.82421875 4.60546875 C5.13037109 5.34216797 5.43652344 6.07886719 5.75195312 6.83789062 C6.06068359 7.61326172 6.36941406 8.38863281 6.6875 9.1875 C7.00783203 9.94353516 7.32816406 10.69957031 7.65820312 11.47851562 C9.42076631 15.81164006 10.40247852 19.23860321 10 24 C7.83906595 21.83906595 7.17633186 20.31440889 6.0546875 17.5 C5.70019531 16.613125 5.34570312 15.72625 4.98046875 14.8125 C4.61566406 13.884375 4.25085938 12.95625 3.875 12 C3.50246094 11.071875 3.12992188 10.14375 2.74609375 9.1875 C0 2.26694139 0 2.26694139 0 0 Z " fill="#FE18F5" transform="translate(157,55)"/>
<path d="M0 0 C3 1 3 1 4.18261719 2.9777832 C5.38376864 5.75143245 6.58183415 8.52474773 7.75 11.3125 C8.17410156 12.27607422 8.59820312 13.23964844 9.03515625 14.23242188 C9.43089844 15.16248047 9.82664063 16.09253906 10.234375 17.05078125 C10.59756836 17.90325439 10.96076172 18.75572754 11.33496094 19.6340332 C12.06191725 22.22027902 11.9006079 23.5053161 11 26 C8.20416568 20.63199811 5.69221746 15.16061054 3.25 9.625 C2.77324829 8.55378906 2.77324829 8.55378906 2.28686523 7.4609375 C0 2.23808865 0 2.23808865 0 0 Z " fill="#FB21F3" transform="translate(198,14)"/>
<path d="M0 0 C0.33 0 0.66 0 1 0 C1 6.6 1 13.2 1 20 C-3 15 -3 15 -3 12 C-2.34 11.34 -1.68 10.68 -1 10 C-0.53837573 7.56747339 -0.53837573 7.56747339 -0.375 4.875 C-0.30023438 3.96492188 -0.22546875 3.05484375 -0.1484375 2.1171875 C-0.09945312 1.41851562 -0.05046875 0.71984375 0 0 Z " fill="#AFFBFE" transform="translate(196,55)"/>
<path d="M0 0 C2.86724686 0.57344937 3.8614515 0.8614515 6 3 C6.31537716 7.33643601 6.44897847 9.32653229 4 13 C3.01 12.67 2.02 12.34 1 12 C1.33 11.67 1.66 11.34 2 11 C2.19941868 8.93227266 2.19941868 8.93227266 2.1875 6.5625 C2.20167969 5.75941406 2.21585937 4.95632812 2.23046875 4.12890625 C2.20162356 1.78369367 2.20162356 1.78369367 0 0 Z " fill="#35EEEC" transform="translate(292,61)"/>
<path d="M0 0 C3.84162002 1.24593082 6.1145859 2.33391703 8 6 C7.80697424 9.86051522 6.47512452 12.09441905 4 15 C3.01 14.67 2.02 14.34 1 14 C1.99 13.34 2.98 12.68 4 12 C4.33957665 8.99232114 4.54493987 6.90252186 4 4 C2.16658535 1.49479421 2.16658535 1.49479421 0 0 Z " fill="#FB27E8" transform="translate(170,25)"/>
<path d="M0 0 C3.63 0 7.26 0 11 0 C10.67 2.31 10.34 4.62 10 7 C9.34 7 8.68 7 8 7 C8 5.35 8 3.7 8 2 C5.36 2 2.72 2 0 2 C0 1.34 0 0.68 0 0 Z " fill="#ED6965" transform="translate(379,74)"/>
<path d="M0 0 C0.99 0 1.98 0 3 0 C3.72726052 1.5747294 4.43120422 3.16024279 5.125 4.75 C5.51945312 5.63171875 5.91390625 6.5134375 6.3203125 7.421875 C7 10 7 10 6.1171875 12.328125 C5.74851562 12.87984375 5.37984375 13.4315625 5 14 C4.16235732 12.04350603 3.33000941 10.08474444 2.5 8.125 C2.0359375 7.03445312 1.571875 5.94390625 1.09375 4.8203125 C0 2 0 2 0 0 Z " fill="#31F0ED" transform="translate(103,54)"/>
<path d="M0 0 C2.475 0.495 2.475 0.495 5 1 C5 2.65 5 4.3 5 6 C3.0625 6.5625 3.0625 6.5625 1 7 C0 6 0 6 -0.0625 2.9375 C-0.041875 1.968125 -0.02125 0.99875 0 0 Z " fill="#8D86E8" transform="translate(179,59)"/>
<path d="M0 0 C0.99 0 1.98 0 3 0 C1.58192622 4.47238653 -0.11304374 8.71146306 -2 13 C-2.66 12.67 -3.32 12.34 -4 12 C-2.66666667 8 -1.33333333 4 0 0 Z " fill="#2FF3F1" transform="translate(398,54)"/>
<path d="M0 0 C0.66 0 1.32 0 2 0 C1.79503906 0.60328125 1.59007813 1.2065625 1.37890625 1.828125 C1.10949219 2.62734375 0.84007813 3.4265625 0.5625 4.25 C0.29566406 5.03890625 0.02882813 5.8278125 -0.24609375 6.640625 C-0.91954708 8.74821988 -1.49150595 10.84753973 -2 13 C-2.66 13 -3.32 13 -4 13 C-3.50269348 8.02693484 -2.44697666 4.36200187 0 0 Z " fill="#28F2F3" transform="translate(124,54)"/>
<path d="M0 0 C0.33 0 0.66 0 1 0 C2.59271819 7.94627878 2.59271819 7.94627878 0.3125 12 C-1.92277326 13.93320931 -3.10259701 14.68956397 -6 15 C-5.67 14.34 -5.34 13.68 -5 13 C-4.34 13 -3.68 13 -3 13 C-1.41744803 8.67435795 -0.54855348 4.571279 0 0 Z " fill="#FE1DE1" transform="translate(307,65)"/>
<path d="M0 0 C0.66 0.33 1.32 0.66 2 1 C2.73075648 3.3140622 3.40138258 5.64828869 4 8 C2.02 8 0.04 8 -2 8 C-1.33333333 5.33333333 -0.66666667 2.66666667 0 0 Z " fill="#7BA0D4" transform="translate(405,64)"/>
<path d="M0 0 C0.66 0.33 1.32 0.66 2 1 C2.73075648 3.3140622 3.40138258 5.64828869 4 8 C2.02 8 0.04 8 -2 8 C-1.33333333 5.33333333 -0.66666667 2.66666667 0 0 Z " fill="#7BA0D4" transform="translate(324,64)"/>
<path d="M0 0 C1.485 0.99 1.485 0.99 3 2 C3.40843923 4.71203652 3.13336867 7.2437142 3 10 C2.01 10 1.02 10 0 10 C0 6.7 0 3.4 0 0 Z " fill="#FB29EC" transform="translate(179,71)"/>
<path d="M0 0 C3.1744176 1.09462676 3.98914157 1.98177335 5.75 4.9375 C7 8 7 8 7 11 C6.34 11 5.68 11 5 11 C4.16151196 9.54462432 3.32936066 8.08559627 2.5 6.625 C1.80390625 5.40683594 1.80390625 5.40683594 1.09375 4.1640625 C0 2 0 2 0 0 Z " fill="#27E8EC" transform="translate(180,70)"/>
<path d="M0 0 C3.2626876 3.08632611 6.02235218 5.93483504 8 10 C7.67 10.66 7.34 11.32 7 12 C5.82455195 10.56967163 4.65989738 9.13046758 3.5 7.6875 C2.8503125 6.88699219 2.200625 6.08648437 1.53125 5.26171875 C0 3 0 3 0 0 Z " fill="#2EE5E6" transform="translate(281,29)"/>
<path d="M0 0 C0.66 0 1.32 0 2 0 C1.67 1.65 1.34 3.3 1 5 C-2.96 5 -6.92 5 -11 5 C-11 4.67 -11 4.34 -11 4 C-7.7 4 -4.4 4 -1 4 C-0.67 2.68 -0.34 1.36 0 0 Z " fill="#FE90F1" transform="translate(244,77)"/>
<path d="M0 0 C0.99 0.33 1.98 0.66 3 1 C4.1875 4.5625 4.1875 4.5625 5 8 C4.01 8.495 4.01 8.495 3 9 C2.01 6.03 1.02 3.06 0 0 Z " fill="#F81BF5" transform="translate(116,55)"/>
<path d="M0 0 C0.66 0 1.32 0 2 0 C4.09350689 3.4019487 4.17942163 6.05272412 4 10 C0 4 0 4 0 0 Z " fill="#E52BEF" transform="translate(193,71)"/>
<path d="M0 0 C3.40320742 1.01176437 4.75725331 1.64843582 6.8125 4.625 C7.204375 5.40875 7.59625 6.1925 8 7 C7.01 7 6.02 7 5 7 C3.61328125 5.46875 3.61328125 5.46875 2.3125 3.5 C1.87550781 2.8503125 1.43851562 2.200625 0.98828125 1.53125 C0.49908203 0.77328125 0.49908203 0.77328125 0 0 Z " fill="#FF22E9" transform="translate(301,56)"/>
<path d="M0 0 C0.66 0.33 1.32 0.66 2 1 C1.21654285 2.17219543 0.42297164 3.33763668 -0.375 4.5 C-0.81585938 5.1496875 -1.25671875 5.799375 -1.7109375 6.46875 C-2.13632813 6.9740625 -2.56171875 7.479375 -3 8 C-3.66 8 -4.32 8 -5 8 C-3.8141763 4.62496331 -2.72426311 2.35277269 0 0 Z " fill="#19F5F6" transform="translate(219,55)"/>
<path d="M0 0 C0 2.64 0 5.28 0 8 C-1.32 6.35 -2.64 4.7 -4 3 C-1.125 0 -1.125 0 0 0 Z " fill="#FDE9FE" transform="translate(196,65)"/>
<path d="M0 0 C0.66 0 1.32 0 2 0 C2.66 2.31 3.32 4.62 4 7 C3.01 7 2.02 7 1 7 C0.67 4.69 0.34 2.38 0 0 Z " fill="#47DCE5" transform="translate(252,24)"/>
<path d="M0 0 C0.66 0 1.32 0 2 0 C2.66 2.31 3.32 4.62 4 7 C3.01 7 2.02 7 1 7 C0.67 4.69 0.34 2.38 0 0 Z " fill="#3BE0DE" transform="translate(192,24)"/>
</svg>
